# xmcd
#
# Track frame offsets:
#	150
#	16642
#	29292
#	41724
#	55399
#	68417
#	81822
#	113974
#	131427
#	142808
#	153802
#	166672
#
# Disc length: 2407 seconds
#
# Revision: 4
# Processed by: cddbd v1.5.2PL0 Copyright (c) Steve Scherf et al.
# Submitted via: EasyCDDAExtractor 15.2.5.1
#
DISCID=8709650c
DTITLE=Oldles - Sausss Ente
DYEAR=1980
DGENRE=Cabaret
TTITLE0=Unchained Melooy
TTITLE1=You  Don'T Know
TTITLE2=Sunny
TTITLE3=Stand By Me
TTITLE4=When A Man Loves A Woman
TTITLE5=Tombe La Nlelge 
TTITLE6=Hey Jude
TTITLE7=Let It Be
TTITLE8=Hey Paula
TTITLE9=Crazy Love
TTITLE10=You Don'T Have To Say You Love Me
TTITLE11=The Sounds Of SIlence
EXTD=
EXTT0=
EXTT1=
EXTT2=
EXTT3=
EXTT4=
EXTT5=
EXTT6=
EXTT7=
EXTT8=
EXTT9=
EXTT10=
EXTT11=
PLAYORDER=
